<?xml version="1.0" encoding="UTF-8"?>
<svg version="1.1" xmlns="http://www.w3.org/2000/svg" width="347" height="234">
<path d="M0 0 C8.58 0 17.16 0 26 0 C24.47320064 3.05359871 23.08891094 5.38640006 21.0625 8.0625 C20.55847656 8.73410156 20.05445313 9.40570313 19.53515625 10.09765625 C18 12 18 12 16.28515625 13.63671875 C15.86105469 14.08660156 15.43695313 14.53648437 15 15 C15.28797019 16.34386088 15.63215869 17.6757713 16 19 C15.72686657 21.34114367 15.40197001 23.67750658 15 26 C18.63 25.67 22.26 25.34 26 25 C25.34 24.67 24.68 24.34 24 24 C23.64239566 19.02333956 24.63478781 16.10812245 27 11.75 C29.21425487 8.06546225 29.21425487 8.06546225 30 4 C29.01 3.34 28.02 2.68 27 2 C27 1.34 27 0.68 27 0 C30.96 0 34.92 0 39 0 C38.11172918 4.44135412 37.06596155 7.1341933 35 11.0625 C32.48735429 15.84399329 32.48735429 15.84399329 31 21 C32.65 20.67 34.3 20.34 36 20 C36.14695312 19.46632812 36.29390625 18.93265625 36.4453125 18.3828125 C38.35837221 12.027936 41.14250493 6.41553625 45 1 C47.70879335 -0.35439668 50.00933268 -0.06501451 53 0 C52.67 0.99 52.34 1.98 52 3 C51.34 3 50.68 3 50 3 C49.58427734 4.07121094 49.58427734 4.07121094 49.16015625 5.1640625 C48.01716717 7.95803582 46.74341656 10.65401565 45.4375 13.375 C43.45176892 17.69104492 42.3150647 21.27402945 42 26 C43.32 26 44.64 26 46 26 C46 25.34 46 24.68 46 24 C46.58265625 23.44570312 47.1653125 22.89140625 47.765625 22.3203125 C50.49116746 19.48994148 52.06795085 16.3762611 53.75 12.875 C54.06582031 12.24207031 54.38164062 11.60914062 54.70703125 10.95703125 C56.43391146 7.63480792 56.43391146 7.63480792 57 4 C56.01 3.34 55.02 2.68 54 2 C54 1.34 54 0.68 54 0 C57.96 0 61.92 0 66 0 C66.99 4.95 66.99 4.95 68 10 C69.1446875 8.081875 69.1446875 8.081875 70.3125 6.125 C72.09325753 3.14102793 73.01793988 1.98804008 76 0 C77.97705078 -0.24291992 77.97705078 -0.24291992 80.1953125 -0.23046875 C80.99324219 -0.22853516 81.79117188 -0.22660156 82.61328125 -0.22460938 C83.44214844 -0.21236328 84.27101562 -0.20011719 85.125 -0.1875 C85.96160156 -0.18685547 86.79820312 -0.18621094 87.66015625 -0.18554688 C93.85966837 -0.14033163 93.85966837 -0.14033163 95 1 C95.33333333 3.33333333 95.66666667 5.66666667 96 8 C96.33 8.33 96.66 8.66 97 9 C97.50660156 8.15115234 97.50660156 8.15115234 98.0234375 7.28515625 C98.69246094 6.18494141 98.69246094 6.18494141 99.375 5.0625 C100.03628906 3.96615234 100.03628906 3.96615234 100.7109375 2.84765625 C102 1 102 1 104 0 C105.99960012 -0.039992 108.00047242 -0.04346799 110 0 C108.71652953 2.67880305 107.29049618 5.10668875 105.625 7.5625 C102.19405658 12.97870741 99 19.5055649 99 26 C100.32 26 101.64 26 103 26 C103 25.34 103 24.68 103 24 C103.88751953 23.14921875 103.88751953 23.14921875 104.79296875 22.28125 C107.41967444 19.56621262 108.73036045 16.9233888 110.3125 13.5 C111.11107422 11.81390625 111.11107422 11.81390625 111.92578125 10.09375 C113.01137923 6.96722782 113.21823883 5.97067865 112 3 C111.67 2.01 111.34 1.02 111 0 C119.25 0 127.5 0 136 0 C136 2 136 2 134.0625 4 C133.381875 4.66 132.70125 5.32 132 6 C131.67 6.66 131.34 7.32 131 8 C130.34 8 129.68 8 129 8 C128.67 7.34 128.34 6.68 128 6 C125.69 6 123.38 6 121 6 C121.99 6.99 122.98 7.98 124 9 C121 10 121 10 119 10 C121.64 10.33 124.28 10.66 127 11 C125.69363006 13.61273988 124.71590242 13.97236124 122 15 C118.75 15.125 118.75 15.125 116 15 C115.34 16.98 114.68 18.96 114 21 C115.65 21 117.3 21 119 21 C118.67 20.34 118.34 19.68 118 19 C117.67 18.34 117.34 17.68 117 17 C119.97 17 122.94 17 126 17 C125.67 19.97 125.34 22.94 125 26 C126.32 26 127.64 26 129 26 C129 25.34 129 24.68 129 24 C129.70125 23.38125 130.4025 22.7625 131.125 22.125 C135.44102591 18.05631082 137.54210565 12.29587546 140 7 C142.97 7 145.94 7 149 7 C149 7.66 149 8.32 149 9 C147.68 9 146.36 9 145 9 C145 9.66 145 10.32 145 11 C148.65316671 9.75023244 149.78065836 9.32901247 152 6 C150.87851562 5.94392578 150.87851562 5.94392578 149.734375 5.88671875 C148.74953125 5.82097656 147.7646875 5.75523438 146.75 5.6875 C145.77546875 5.62949219 144.8009375 5.57148437 143.796875 5.51171875 C140.72170503 4.9490829 139.23652952 4.15665346 137 2 C137 1.34 137 0.68 137 0 C145.58 0 154.16 0 163 0 C161.47168945 3.05662109 159.92916019 5.78463666 158.0625 8.625 C157.30646484 9.78902344 157.30646484 9.78902344 156.53515625 10.9765625 C155 13 155 13 152 15 C152.165 15.515625 152.33 16.03125 152.5 16.5625 C153.15049 19.73363876 153.0620734 22.77218334 153 26 C154.65 26.33 156.3 26.66 158 27 C158 31.62 158 36.24 158 41 C154.1759982 41.76480036 151.33517816 42.11807221 147.52830505 42.09333801 C145.89852722 42.08672905 145.89852722 42.08672905 144.23582458 42.07998657 C143.05383987 42.07010712 141.87185516 42.06022766 140.65405273 42.05004883 C139.40153717 42.04376968 138.14902161 42.03749054 136.85855103 42.03102112 C134.14011368 42.01717546 131.42174335 42.001588 128.70333672 41.98346901 C124.40462679 41.95558191 120.10591724 41.93861124 115.80714417 41.92399597 C114.33406348 41.91885261 112.86098285 41.91369598 111.38790226 41.90852642 C110.6504141 41.90594086 109.91292593 41.9033553 109.15308964 41.90069139 C99.14925405 41.86466182 89.14552996 41.81917177 79.1418457 41.75317383 C72.38732729 41.70869956 65.63290563 41.6784298 58.87825352 41.66431636 C55.30545585 41.65624054 51.73302884 41.64071531 48.16036797 41.60764503 C44.17905986 41.57085367 40.19803674 41.56502145 36.21655273 41.56176758 C35.03254379 41.54581543 33.84853485 41.52986328 32.62864685 41.51342773 C31.00309875 41.51950798 31.00309875 41.51950798 29.3447113 41.52571106 C27.93304766 41.51823207 27.93304766 41.51823207 26.49286556 41.510602 C23.28008301 42.14133371 22.16116818 43.62234594 20 46 C19.34 46 18.68 46 18 46 C18 46.66 18 47.32 18 48 C4.9502849 58.42949671 -10.73387591 61.29348566 -27 60 C-41.9999237 57.44354483 -52.90434582 50.1007525 -63 39 C-62.34 37.35 -61.68 35.7 -61 34 C-60.01 34 -59.02 34 -58 34 C-56.5625 35.72265625 -56.5625 35.72265625 -55 38.0625 C-48.11168629 47.28558952 -36.34765344 53.28986068 -25 55 C-7.12067052 56.27868063 6.55992922 52.89093585 21 42 C20.10168457 42.01047363 19.20336914 42.02094727 18.27783203 42.03173828 C14.94935553 42.0657947 11.62106378 42.09088618 8.29248047 42.10986328 C6.85104453 42.11992963 5.40962905 42.1335838 3.96826172 42.15087891 C1.89806066 42.17510012 -0.17187076 42.18647641 -2.2421875 42.1953125 C-4.11173096 42.21102295 -4.11173096 42.21102295 -6.01904297 42.22705078 C-9 42 -9 42 -11 40 C-11.56701701 35.95925776 -11.54116208 32.04248071 -11 28 C-8.6875 25 -8.6875 25 -6 23 C-3.34137629 19.86056136 -1.6148893 16.43488479 0.1875 12.75 C0.71730469 11.67234375 1.24710937 10.5946875 1.79296875 9.484375 C2.19128906 8.66453125 2.58960938 7.8446875 3 7 C4.98 7 6.96 7 9 7 C8.67 8.32 8.34 9.64 8 11 C11.65316671 9.75023244 12.78065836 9.32901247 15 6 C14.25234375 5.96261719 13.5046875 5.92523438 12.734375 5.88671875 C11.25710937 5.78810547 11.25710937 5.78810547 9.75 5.6875 C8.77546875 5.62949219 7.8009375 5.57148437 6.796875 5.51171875 C3.72170503 4.9490829 2.23652952 4.15665346 0 2 C0 1.34 0 0.68 0 0 Z M80 2 C74.73090787 7.57206493 70 16.29913487 70 24 C68.35 24.33 66.7 24.66 65 25 C65 25.33 65 25.66 65 26 C67.97 26 70.94 26 74 26 C74 25.34 74 24.68 74 24 C74.61439941 23.74331543 75.22879883 23.48663086 75.86181641 23.22216797 C79.45452187 21.16860739 80.60224708 17.74090397 82.375 14.125 C82.75527344 13.40441406 83.13554687 12.68382813 83.52734375 11.94140625 C85.7199565 7.87384266 85.7199565 7.87384266 85.2265625 3.4921875 C84.61941406 2.75355469 84.61941406 2.75355469 84 2 C82.68 2 81.36 2 80 2 Z M61 11 C60.62488281 11.92683594 60.24976563 12.85367188 59.86328125 13.80859375 C59.35152344 15.00613281 58.83976562 16.20367187 58.3125 17.4375 C57.81363281 18.63246094 57.31476563 19.82742187 56.80078125 21.05859375 C55 24 55 24 52.29296875 24.91015625 C51.53628906 24.93980469 50.77960938 24.96945313 50 25 C50.66 25.66 51.32 26.32 52 27 C54.90675183 27.02168637 54.90675183 27.02168637 58.125 26.625 C61.033125 26.315625 61.033125 26.315625 64 26 C63.34 21.05 62.68 16.1 62 11 C61.67 11 61.34 11 61 11 Z M89 12 C88.62488281 12.85464844 88.24976563 13.70929688 87.86328125 14.58984375 C87.35152344 15.69457031 86.83976563 16.79929688 86.3125 17.9375 C85.81363281 19.03964844 85.31476563 20.14179688 84.80078125 21.27734375 C83 24 83 24 80.29296875 24.87890625 C79.53628906 24.91886719 78.77960938 24.95882812 78 25 C78 25.33 78 25.66 78 26 C82.62 26 87.24 26 92 26 C91.34 21.38 90.68 16.76 90 12 C89.67 12 89.34 12 89 12 Z M5 15 C5 15.66 5 16.32 5 17 C5.99 17 6.98 17 8 17 C8 17.66 8 18.32 8 19 C6.68 18.67 5.36 18.34 4 18 C3.01 20.64 2.02 23.28 1 26 C3.97 26 6.94 26 10 26 C9.34 25.67 8.68 25.34 8 25 C8.33 22.03 8.66 19.06 9 16 C7.68 15.67 6.36 15.34 5 15 Z M142 15 C140.38935371 18.65079826 139.55105909 22.0507432 139 26 C142.63 26 146.26 26 150 26 C148.68 25.34 147.36 24.68 146 24 C146 21.36 146 18.72 146 16 C144.68 15.67 143.36 15.34 142 15 Z M106 25 C106 25.33 106 25.66 106 26 C111.94 26 117.88 26 124 26 C124 25.67 124 25.34 124 25 C118.06 25 112.12 25 106 25 Z M131 25 C131 25.33 131 25.66 131 26 C132.98 26 134.96 26 137 26 C137 25.67 137 25.34 137 25 C135.02 25 133.04 25 131 25 Z M123 30 C123.33 30.66 123.66 31.32 124 32 C124.33 31.34 124.66 30.68 125 30 C124.34 30 123.68 30 123 30 Z M72 31 C72 32.98 72 34.96 72 37 C72.33 37 72.66 37 73 37 C73 35.02 73 33.04 73 31 C72.67 31 72.34 31 72 31 Z M144 33 C145 37 145 37 145 37 Z M-2 34 C-1 36 -1 36 -1 36 Z M3 34 C3.33 34.99 3.66 35.98 4 37 C4 36.01 4 35.02 4 34 C3.67 34 3.34 34 3 34 Z " fill="#C04B4E" transform="translate(132,114)"/>
<path d="M0 0 C3.3125 1.875 3.3125 1.875 6 4 C6 4.99 6 5.98 6 7 C5.34 7 4.68 7 4 7 C3.814375 8.85625 3.814375 8.85625 3.625 10.75 C3.24253695 13.8762197 2.69450477 16.28879237 1 19 C1.99 19.66 2.98 20.32 4 21 C4.19335938 20.02417969 4.38671875 19.04835938 4.5859375 18.04296875 C4.84632813 16.77066406 5.10671875 15.49835938 5.375 14.1875 C5.63023437 12.92292969 5.88546875 11.65835938 6.1484375 10.35546875 C7 7 7 7 9 4 C10.32 4.33 11.64 4.66 13 5 C14.04747515 7.72343539 14.0479907 8.86169767 13.07421875 11.66796875 C11.49467353 16.56743084 11.28524487 21.52491107 10.85546875 26.63671875 C10 30 10 30 7.42578125 31.95703125 C6.62527344 32.30121094 5.82476562 32.64539063 5 33 C4.29875 32.38125 3.5975 31.7625 2.875 31.125 C-0.07198567 28.9467932 -2.52903057 28.06725099 -6 27 C-6.59167969 27.59167969 -7.18335937 28.18335937 -7.79296875 28.79296875 C-11.86197917 32.86197917 -15.93098958 36.93098958 -20 41 C-18.90751953 41.37511719 -18.90751953 41.37511719 -17.79296875 41.7578125 C-14.76378688 43.10505702 -12.77086313 44.66289056 -10.3125 46.875 C-9.54550781 47.55304688 -8.77851562 48.23109375 -7.98828125 48.9296875 C-6.08002886 50.91666936 -4.97885866 52.44233704 -4 55 C-4.0625 57.5 -4.0625 57.5 -5 60 C-8.84046185 63.60945663 -12.847308 65.40969422 -17.6875 67.25 C-18.70166992 67.6521875 -18.70166992 67.6521875 -19.73632812 68.0625 C-24.70364318 70 -24.70364318 70 -27 70 C-26.505 71.8253125 -26.505 71.8253125 -26 73.6875 C-25.19677787 76.87210604 -24.79358027 79.6972843 -25 83 C-28.40667209 82.71611066 -29.68756804 82.35148596 -32 79.75 C-32.66 78.8425 -33.32 77.935 -34 77 C-34.928125 76.154375 -35.85625 75.30875 -36.8125 74.4375 C-39 72 -39 72 -38.9375 69.8125 C-37.38266919 66.80649376 -36.03003064 66.01201226 -32.875 64.75 C-28.33536607 62.90547505 -24.83014788 60.02380095 -21 57 C-25.455 55.02 -25.455 55.02 -30 53 C-31.07378906 54.08539063 -32.14757812 55.17078125 -33.25390625 56.2890625 C-34.68996801 57.73451028 -36.12617359 59.17981519 -37.5625 60.625 C-38.26697266 61.33785156 -38.97144531 62.05070312 -39.69726562 62.78515625 C-43.50137458 66.60679566 -47.37200433 70.23379974 -51.50170898 73.69970703 C-53.4269974 75.37057001 -55.09996168 77.18424064 -56.75 79.125 C-57.30171875 79.76695312 -57.8534375 80.40890625 -58.421875 81.0703125 C-59.20304687 82.02550781 -59.20304687 82.02550781 -60 83 C-60.53753906 83.61101562 -61.07507813 84.22203125 -61.62890625 84.8515625 C-63.39691922 87.6219532 -63.72946013 90.00848708 -64.1875 93.25 C-64.34605469 94.32765625 -64.50460938 95.4053125 -64.66796875 96.515625 C-64.83232422 97.74539062 -64.83232422 97.74539062 -65 99 C-67.375 98.75 -67.375 98.75 -70 98 C-72.23401689 95.01217373 -72.36452645 91.89662967 -72.625 88.25 C-72.69976562 87.26515625 -72.77453125 86.2803125 -72.8515625 85.265625 C-72.90054688 84.51796875 -72.94953125 83.7703125 -73 83 C-68.25 80 -68.25 80 -66 80 C-65.5978125 78.6696875 -65.5978125 78.6696875 -65.1875 77.3125 C-64.0819322 74.2285477 -62.69898404 71.7801557 -61 69 C-61 68.34 -61 67.68 -61 67 C-61.495 67.99 -61.495 67.99 -62 69 C-62.66 69 -63.32 69 -64 69 C-69.81516211 54.08284501 -69.68764773 38.98715934 -64 24 C-63.35994971 22.65368732 -62.70447442 21.3137496 -62 20 C-61.01 20.33 -60.02 20.66 -59 21 C-59 21.66 -59 22.32 -59 23 C-58.34 23 -57.68 23 -57 23 C-57.47851628 25.57376715 -58.02081287 28.07138921 -58.75390625 30.5859375 C-62.02505104 41.86901664 -62.60803201 53.05592397 -58 64 C-52.22248762 61.11124381 -50.21199401 57.27889693 -47.39453125 51.55859375 C-46 49 -46 49 -44.36328125 47.42578125 C-42.57689988 45.55750274 -42.61493321 44.29151475 -42.375 41.75 C-41.36332552 36.42584872 -38.61019288 34.84642125 -34.31640625 31.8828125 C-30.37339776 28.67787137 -28.38128698 24.4079142 -26 20 C-24.70818582 17.96770666 -23.35997069 15.98764946 -22 14 C-24.57808688 12.58081176 -24.57808688 12.58081176 -28 12 C-30.25672326 12.81074873 -32.19794589 13.84453422 -34.265625 15.0546875 C-36 16 -36 16 -38 16 C-38.66 18.64 -39.32 21.28 -40 24 C-42.66666667 24.66666667 -45.33333333 25.33333333 -48 26 C-49.27537609 23.59095627 -50.31258452 21.60351848 -51 19 C-50.125 16.25 -50.125 16.25 -48 14 C-46.33485732 13.28170316 -44.66448301 12.57097692 -42.9609375 11.94921875 C-40.54980111 10.78207504 -38.89707683 9.25817962 -36.9375 7.4375 C-31.35082553 2.42655152 -31.35082553 2.42655152 -27 2 C-21.74173664 3.40476233 -16.82827919 5.50652248 -12 8 C-11.773125 7.071875 -11.54625 6.14375 -11.3125 5.1875 C-10 2 -10 2 -7.6875 0.0625 C-4.4420319 -1.22059204 -3.26130374 -1.1931599 0 0 Z " fill="#CC2127" transform="translate(125,70)"/>
<path d="M0 0 C3.12933041 -0.29132442 6.06029935 -0.38828991 9.19140625 -0.35644531 C10.14433563 -0.35848969 11.09726501 -0.36053406 12.07907104 -0.36264038 C15.24040691 -0.36565738 18.40122581 -0.34714362 21.5625 -0.328125 C23.75203319 -0.32506888 25.94156832 -0.32319164 28.13110352 -0.32244873 C32.72452204 -0.31783988 37.31776582 -0.30339164 41.91113281 -0.28125 C47.80962123 -0.25296721 53.70797183 -0.24203916 59.60652161 -0.2375679 C64.12912383 -0.23341772 68.65169797 -0.22360359 73.17428589 -0.21169281 C75.34967828 -0.20598116 77.5250734 -0.20122543 79.70046997 -0.19742584 C82.73655987 -0.19057705 85.77253902 -0.17695111 88.80859375 -0.16113281 C89.71463348 -0.16001495 90.62067322 -0.15889709 91.5541687 -0.15774536 C97.77062002 -0.11468999 97.77062002 -0.11468999 100 1 C100 4.96 100 8.92 100 13 C96.41682757 13.71663449 93.79804997 14.12433454 90.26066589 14.12025452 C89.33664978 14.12162918 88.41263367 14.12300385 87.46061707 14.12442017 C85.95873589 14.11902725 85.95873589 14.11902725 84.42651367 14.11352539 C83.36264435 14.11367142 82.29877502 14.11381744 81.20266724 14.1139679 C77.69108023 14.113272 74.17954647 14.10549468 70.66796875 14.09765625 C68.23130828 14.09579092 65.79464743 14.09436756 63.35798645 14.09336853 C56.94811974 14.08955239 50.53827572 14.07972978 44.12841797 14.06866455 C37.58626614 14.05843104 31.04411065 14.05386675 24.50195312 14.04882812 C11.66795907 14.03810673 -1.16601926 14.02123363 -14 14 C-14 13.01 -14 12.02 -14 11 C-18.95 11 -23.9 11 -29 11 C-29 7 -29 7 -26.5625 4.3125 C-25.716875 3.549375 -24.87125 2.78625 -24 2 C-23.67 1.67 -23.34 1.34 -23 1 C-20.30345146 0.92680379 -17.63308542 0.90757463 -14.9375 0.9375 C-14.17888672 0.94201172 -13.42027344 0.94652344 -12.63867188 0.95117188 C-10.75908129 0.9629932 -8.87953101 0.98092922 -7 1 C-7.33 1.99 -7.66 2.98 -8 4 C-7.34 4.33 -6.68 4.66 -6 5 C-6 4.01 -6 3.02 -6 2 C-5.34 2 -4.68 2 -4 2 C-4 4.64 -4 7.28 -4 10 C-4.99 10.33 -5.98 10.66 -7 11 C-5.68 11.33 -4.36 11.66 -3 12 C-2.95101562 11.38511719 -2.90203125 10.77023438 -2.8515625 10.13671875 C-2.77679688 9.32847656 -2.70203125 8.52023438 -2.625 7.6875 C-2.55539063 6.88699219 -2.48578125 6.08648437 -2.4140625 5.26171875 C-2 3 -2 3 0 0 Z M65 2 C65.33 2.66 65.66 3.32 66 4 C66.33 3.34 66.66 2.68 67 2 C66.34 2 65.68 2 65 2 Z M14 3 C14 4.98 14 6.96 14 9 C14.33 9 14.66 9 15 9 C15 7.02 15 5.04 15 3 C14.67 3 14.34 3 14 3 Z M86 5 C87 9 87 9 87 9 Z " fill="#C92228" transform="translate(190,142)"/>
<path d="M0 0 C3.3125 1.875 3.3125 1.875 6 4 C6 4.99 6 5.98 6 7 C5.34 7 4.68 7 4 7 C3.814375 8.85625 3.814375 8.85625 3.625 10.75 C3.24253695 13.8762197 2.69450477 16.28879237 1 19 C1.99 19.66 2.98 20.32 4 21 C4.19335938 20.02417969 4.38671875 19.04835938 4.5859375 18.04296875 C4.84632813 16.77066406 5.10671875 15.49835938 5.375 14.1875 C5.63023437 12.92292969 5.88546875 11.65835938 6.1484375 10.35546875 C7 7 7 7 9 4 C10.32 4.33 11.64 4.66 13 5 C14.04747515 7.72343539 14.0479907 8.86169767 13.07421875 11.66796875 C11.49467353 16.56743084 11.28524487 21.52491107 10.85546875 26.63671875 C10 30 10 30 7.42578125 31.95703125 C6.62527344 32.30121094 5.82476562 32.64539063 5 33 C4.29875 32.38125 3.5975 31.7625 2.875 31.125 C-0.07198567 28.9467932 -2.52903057 28.06725099 -6 27 C-6.59167969 27.59167969 -7.18335938 28.18335937 -7.79296875 28.79296875 C-11.86197917 32.86197917 -15.93098958 36.93098958 -20 41 C-18.90751953 41.37511719 -18.90751953 41.37511719 -17.79296875 41.7578125 C-14.76378688 43.10505702 -12.77086313 44.66289056 -10.3125 46.875 C-9.54550781 47.55304688 -8.77851562 48.23109375 -7.98828125 48.9296875 C-6.08002886 50.91666936 -4.97885866 52.44233704 -4 55 C-4.0625 57.5 -4.0625 57.5 -5 60 C-7.69414712 62.54851755 -10.49777876 64.71585221 -14 66 C-14.99 65.67 -15.98 65.34 -17 65 C-16.67 64.34 -16.34 63.68 -16 63 C-15.34 63 -14.68 63 -14 63 C-14 62.34 -14 61.68 -14 61 C-11.69 60.34 -9.38 59.68 -7 59 C-7 57.35 -7 55.7 -7 54 C-7.99 53.67 -8.98 53.34 -10 53 C-10.6875 50.9375 -10.6875 50.9375 -11 49 C-12.0725 48.938125 -13.145 48.87625 -14.25 48.8125 C-18 48 -18 48 -20.375 45.75 C-21.96606467 43.05742902 -22.64740907 41.08517061 -23 38 C-23.66 38 -24.32 38 -25 38 C-25.66 37.34 -26.32 36.68 -27 36 C-28.32 36 -29.64 36 -31 36 C-31.12822535 27.39058378 -28.21339283 22.64452027 -23 16 C-22.67 15.34 -22.34 14.68 -22 14 C-24.57808688 12.58081176 -24.57808688 12.58081176 -28 12 C-30.25672326 12.81074873 -32.19794589 13.84453422 -34.265625 15.0546875 C-36 16 -36 16 -38 16 C-38.66 18.64 -39.32 21.28 -40 24 C-42.66666667 24.66666667 -45.33333333 25.33333333 -48 26 C-49.27537609 23.59095627 -50.31258452 21.60351848 -51 19 C-50.125 16.25 -50.125 16.25 -48 14 C-46.33485732 13.28170316 -44.66448301 12.57097692 -42.9609375 11.94921875 C-40.54980111 10.78207504 -38.89707683 9.25817962 -36.9375 7.4375 C-31.35082553 2.42655152 -31.35082553 2.42655152 -27 2 C-21.74173664 3.40476233 -16.82827919 5.50652248 -12 8 C-11.773125 7.071875 -11.54625 6.14375 -11.3125 5.1875 C-10 2 -10 2 -7.6875 0.0625 C-4.4420319 -1.22059204 -3.26130374 -1.1931599 0 0 Z " fill="#C72227" transform="translate(125,70)"/>
<path d="M0 0 C8.58 0 17.16 0 26 0 C24.47320064 3.05359871 23.08891094 5.38640006 21.0625 8.0625 C20.55847656 8.73410156 20.05445313 9.40570313 19.53515625 10.09765625 C18 12 18 12 16.28515625 13.63671875 C15.86105469 14.08660156 15.43695313 14.53648437 15 15 C15.28797019 16.34386088 15.63215869 17.6757713 16 19 C15.72686657 21.34114367 15.40197001 23.67750658 15 26 C15.55171875 26.13277344 16.1034375 26.26554687 16.671875 26.40234375 C19.22050602 27.05660641 21.73159343 27.80035064 24.25 28.5625 C25.14203125 28.83191406 26.0340625 29.10132813 26.953125 29.37890625 C27.62859375 29.58386719 28.3040625 29.78882813 29 30 C27.68 30.66 26.36 31.32 25 32 C25 34.31 25 36.62 25 39 C31.27 39 37.54 39 44 39 C44 39.66 44 40.32 44 41 C43.41508789 41.0093457 42.83017578 41.01869141 42.22753906 41.02832031 C39.5675142 41.08213279 36.90922778 41.16575449 34.25 41.25 C33.32960938 41.26417969 32.40921875 41.27835938 31.4609375 41.29296875 C26.03844989 41.38894927 26.03844989 41.38894927 21.484375 44.046875 C20.99453125 44.69140625 20.5046875 45.3359375 20 46 C19.34 46 18.68 46 18 46 C18 46.66 18 47.32 18 48 C4.9502849 58.42949671 -10.73387591 61.29348566 -27 60 C-41.9999237 57.44354483 -52.90434582 50.1007525 -63 39 C-62.34 37.35 -61.68 35.7 -61 34 C-60.01 34 -59.02 34 -58 34 C-56.5625 35.72265625 -56.5625 35.72265625 -55 38.0625 C-48.11168629 47.28558952 -36.34765344 53.28986068 -25 55 C-7.12067052 56.27868063 6.55992922 52.89093585 21 42 C20.10168457 42.01047363 19.20336914 42.02094727 18.27783203 42.03173828 C14.94935553 42.0657947 11.62106378 42.09088618 8.29248047 42.10986328 C6.85104453 42.11992963 5.40962905 42.1335838 3.96826172 42.15087891 C1.89806066 42.17510012 -0.17187076 42.18647641 -2.2421875 42.1953125 C-4.11173096 42.21102295 -4.11173096 42.21102295 -6.01904297 42.22705078 C-9 42 -9 42 -11 40 C-11.56701701 35.95925776 -11.54116208 32.04248071 -11 28 C-8.6875 25 -8.6875 25 -6 23 C-3.34137629 19.86056136 -1.6148893 16.43488479 0.1875 12.75 C0.71730469 11.67234375 1.24710937 10.5946875 1.79296875 9.484375 C2.19128906 8.66453125 2.58960938 7.8446875 3 7 C4.98 7 6.96 7 9 7 C8.67 8.32 8.34 9.64 8 11 C11.65316671 9.75023244 12.78065836 9.32901247 15 6 C14.25234375 5.96261719 13.5046875 5.92523438 12.734375 5.88671875 C11.25710937 5.78810547 11.25710937 5.78810547 9.75 5.6875 C8.77546875 5.62949219 7.8009375 5.57148437 6.796875 5.51171875 C3.72170503 4.9490829 2.23652952 4.15665346 0 2 C0 1.34 0 0.68 0 0 Z M5 15 C5 15.66 5 16.32 5 17 C5.99 17 6.98 17 8 17 C8 17.66 8 18.32 8 19 C6.68 18.67 5.36 18.34 4 18 C3.01 20.64 2.02 23.28 1 26 C3.97 26 6.94 26 10 26 C9.34 25.67 8.68 25.34 8 25 C8.33 22.03 8.66 19.06 9 16 C7.68 15.67 6.36 15.34 5 15 Z M-2 34 C-1 36 -1 36 -1 36 Z M3 34 C3.33 34.99 3.66 35.98 4 37 C4 36.01 4 35.02 4 34 C3.67 34 3.34 34 3 34 Z " fill="#B12E37" transform="translate(132,114)"/>
<path d="M0 0 C3.96 0 7.92 0 12 0 C12.66 3.3 13.32 6.6 14 10 C14.763125 8.72125 15.52625 7.4425 16.3125 6.125 C18.09325753 3.14102793 19.01793988 1.98804008 22 0 C23.97705078 -0.24291992 23.97705078 -0.24291992 26.1953125 -0.23046875 C26.99324219 -0.22853516 27.79117188 -0.22660156 28.61328125 -0.22460938 C29.44214844 -0.21236328 30.27101562 -0.20011719 31.125 -0.1875 C31.96160156 -0.18685547 32.79820312 -0.18621094 33.66015625 -0.18554688 C39.85966837 -0.14033163 39.85966837 -0.14033163 41 1 C41.33333333 3.33333333 41.66666667 5.66666667 42 8 C42.495 8.495 42.495 8.495 43 9 C43.33773437 8.43410156 43.67546875 7.86820312 44.0234375 7.28515625 C44.69246094 6.18494141 44.69246094 6.18494141 45.375 5.0625 C45.81585938 4.33160156 46.25671875 3.60070312 46.7109375 2.84765625 C48 1 48 1 50 0 C51.99960012 -0.039992 54.00047242 -0.04346799 56 0 C54.71652953 2.67880305 53.29049618 5.10668875 51.625 7.5625 C48.98020962 11.71748133 47.37678403 16.03061093 45.796875 20.6796875 C45 23 45 23 44 25 C41.69 25 39.38 25 37 25 C36.34 21.37 35.68 17.74 35 14 C33.948125 16.413125 33.948125 16.413125 32.875 18.875 C30.43475641 23.76931293 30.43475641 23.76931293 26.9375 25.625 C24 26 24 26 20 26 C20 25.34 20 24.68 20 24 C20.75539062 23.27039063 21.51078125 22.54078125 22.2890625 21.7890625 C25.19968799 18.79455731 26.6592494 16.16358634 28.375 12.375 C28.89835937 11.24835938 29.42171875 10.12171875 29.9609375 8.9609375 C31.33990413 5.9988416 31.33990413 5.9988416 30 3 C27.6299511 2.89455447 27.6299511 2.89455447 25 4 C23.1549549 6.383603 21.95190755 9.02444597 20.6875 11.75 C20.32849609 12.46671875 19.96949219 13.1834375 19.59960938 13.921875 C17.76309246 17.72783767 16.49770385 20.67514501 17 25 C14.36 25 11.72 25 9 25 C8.34 21.04 7.68 17.08 7 13 C6.63648438 13.85464844 6.27296875 14.70929688 5.8984375 15.58984375 C5.39570313 16.69457031 4.89296875 17.79929688 4.375 18.9375 C3.88773438 20.03964844 3.40046875 21.14179688 2.8984375 22.27734375 C1 25 1 25 -2.0859375 26.00390625 C-5 26 -5 26 -7 24 C-6.69707031 23.53851563 -6.39414063 23.07703125 -6.08203125 22.6015625 C0.11071552 13.86012742 0.11071552 13.86012742 3 4 C2.01 3.34 1.02 2.68 0 2 C0 1.34 0 0.68 0 0 Z " fill="#FAFAFA" transform="translate(186,114)"/>
<path d="M0 0 C0.99 0.33 1.98 0.66 3 1 C3 1.66 3 2.32 3 3 C3.66 3 4.32 3 5 3 C4.52148372 5.57376715 3.97918713 8.07138921 3.24609375 10.5859375 C-0.02505104 21.86901664 -0.60803201 33.05592397 4 44 C10.5635345 40.71823275 12.87110489 35.43531618 16 29 C17 31 17 31 16.00390625 34.0390625 C15.29041016 35.81410156 15.29041016 35.81410156 14.5625 37.625 C14.08941406 38.81351563 13.61632812 40.00203125 13.12890625 41.2265625 C12.75636719 42.14179688 12.38382813 43.05703125 12 44 C12.68707031 43.71125 13.37414062 43.4225 14.08203125 43.125 C14.98308594 42.75375 15.88414063 42.3825 16.8125 42 C17.70582031 41.62875 18.59914063 41.2575 19.51953125 40.875 C22 40 22 40 25 40 C16.51541598 48.65773879 16.51541598 48.65773879 12.375 52.0625 C8.4738969 55.31946747 5.21165934 59.07287199 2 63 C1.19369141 63.91652344 1.19369141 63.91652344 0.37109375 64.8515625 C-1.39691922 67.6219532 -1.72946013 70.00848708 -2.1875 73.25 C-2.34605469 74.32765625 -2.50460938 75.4053125 -2.66796875 76.515625 C-2.83232422 77.74539062 -2.83232422 77.74539062 -3 79 C-5.375 78.75 -5.375 78.75 -8 78 C-10.23401689 75.01217373 -10.36452645 71.89662967 -10.625 68.25 C-10.69976562 67.26515625 -10.77453125 66.2803125 -10.8515625 65.265625 C-10.90054688 64.51796875 -10.94953125 63.7703125 -11 63 C-6.25 60 -6.25 60 -4 60 C-3.731875 59.113125 -3.46375 58.22625 -3.1875 57.3125 C-2.0819322 54.2285477 -0.69898404 51.7801557 1 49 C1 48.34 1 47.68 1 47 C0.67 47.66 0.34 48.32 0 49 C-0.66 49 -1.32 49 -2 49 C-7.81516211 34.08284501 -7.68764773 18.98715934 -2 4 C-1.35994971 2.65368732 -0.70447442 1.3137496 0 0 Z " fill="#AD2C32" transform="translate(63,90)"/>
<path d="M0 0 C8.58 0 17.16 0 26 0 C24.47168945 3.05662109 22.92916019 5.78463666 21.0625 8.625 C20.55847656 9.40101562 20.05445313 10.17703125 19.53515625 10.9765625 C18 13 18 13 15 15 C15.2475 15.804375 15.2475 15.804375 15.5 16.625 C16.09660212 19.45886009 16.0656368 22.1119806 16 25 C12.37673261 26.2077558 11.35853631 25.54311128 8 24 C8.33 21.36 8.66 18.72 9 16 C7.68 15.67 6.36 15.34 5 15 C5.33 15.99 5.66 16.98 6 18 C5.34 18 4.68 18 4 18 C3.67 20.31 3.34 22.62 3 25 C-0.3 25 -3.6 25 -7 25 C-6.61328125 24.3709375 -6.2265625 23.741875 -5.828125 23.09375 C-2.62522465 17.82957715 0.32686988 12.55188564 3 7 C5.97 7 8.94 7 12 7 C12 7.66 12 8.32 12 9 C10.68 9 9.36 9 8 9 C8 9.66 8 10.32 8 11 C11.65316671 9.75023244 12.78065836 9.32901247 15 6 C14.25234375 5.96261719 13.5046875 5.92523438 12.734375 5.88671875 C11.25710938 5.78810547 11.25710938 5.78810547 9.75 5.6875 C8.77546875 5.62949219 7.8009375 5.57148437 6.796875 5.51171875 C3.72170503 4.9490829 2.23652952 4.15665346 0 2 C0 1.34 0 0.68 0 0 Z " fill="#F9F9F9" transform="translate(269,114)"/>
<path d="M0 0 C8.58 0 17.16 0 26 0 C24.47320064 3.05359871 23.08891094 5.38640006 21.0625 8.0625 C20.55847656 8.73410156 20.05445313 9.40570313 19.53515625 10.09765625 C18 12 18 12 16.28125 13.6328125 C15.8584375 14.08398438 15.435625 14.53515625 15 15 C15.32248257 16.33599921 15.65772583 17.66893378 16 19 C15.3125 22.1875 15.3125 22.1875 14 25 C12 25.9375 12 25.9375 10 26 C9.34 25.67 8.68 25.34 8 25 C8.495 20.545 8.495 20.545 9 16 C7.68 15.67 6.36 15.34 5 15 C5 15.66 5 16.32 5 17 C5.99 17 6.98 17 8 17 C8 17.66 8 18.32 8 19 C7.401875 19.04125 6.80375 19.0825 6.1875 19.125 C3.64899168 19.87739901 3.64899168 19.87739901 2.25 23.0625 C1.8375 24.031875 1.425 25.00125 1 26 C-1.64 25.67 -4.28 25.34 -7 25 C-6.46375 24.2575 -5.9275 23.515 -5.375 22.75 C-2.05265747 17.80233882 0.40278454 12.35026385 3 7 C4.98 7 6.96 7 9 7 C8.67 8.32 8.34 9.64 8 11 C11.65316671 9.75023244 12.78065836 9.32901247 15 6 C14.25234375 5.96261719 13.5046875 5.92523438 12.734375 5.88671875 C11.25710937 5.78810547 11.25710937 5.78810547 9.75 5.6875 C8.77546875 5.62949219 7.8009375 5.57148437 6.796875 5.51171875 C3.72170503 4.9490829 2.23652952 4.15665346 0 2 C0 1.34 0 0.68 0 0 Z " fill="#F7F7F7" transform="translate(132,114)"/>
<path d="M0 0 C3.96 0 7.92 0 12 0 C11.11172918 4.44135412 10.06596155 7.1341933 8 11.0625 C5.48735429 15.84399329 5.48735429 15.84399329 4 21 C5.65 20.67 7.3 20.34 9 20 C9.14695313 19.46632812 9.29390625 18.93265625 9.4453125 18.3828125 C11.35837221 12.027936 14.14250493 6.41553625 18 1 C20.70879335 -0.35439668 23.00933268 -0.06501451 26 0 C25.67 0.99 25.34 1.98 25 3 C24.34 3 23.68 3 23 3 C22.72285156 3.71414062 22.44570312 4.42828125 22.16015625 5.1640625 C21.01716717 7.95803582 19.74341656 10.65401565 18.4375 13.375 C16.45176892 17.69104492 15.3150647 21.27402945 15 26 C2.33029613 26.3690205 2.33029613 26.3690205 -3 24 C-3.35760434 19.02333956 -2.36521219 16.10812245 0 11.75 C2.21425487 8.06546225 2.21425487 8.06546225 3 4 C2.01 3.34 1.02 2.68 0 2 C0 1.34 0 0.68 0 0 Z " fill="#F9F8F8" transform="translate(159,114)"/>
<path d="M0 0 C8.25 0 16.5 0 25 0 C25 2 25 2 23.0625 4 C22.381875 4.66 21.70125 5.32 21 6 C20.67 6.66 20.34 7.32 20 8 C19.34 8 18.68 8 18 8 C17.67 7.34 17.34 6.68 17 6 C14.69 6 12.38 6 10 6 C10.99 6.99 11.98 7.98 13 9 C10 10 10 10 8 10 C10.64 10.33 13.28 10.66 16 11 C14.69363006 13.61273988 13.71590242 13.97236124 11 15 C7.75 15.125 7.75 15.125 5 15 C4.34 16.98 3.68 18.96 3 21 C4.65 21 6.3 21 8 21 C7.67 20.34 7.34 19.68 7 19 C6.67 18.34 6.34 17.68 6 17 C8.97 17 11.94 17 15 17 C14.67 19.64 14.34 22.28 14 25 C7.07 25 0.14 25 -7 25 C-3.0625 17.875 -3.0625 17.875 -1.82446289 15.66748047 C0.26737836 11.81213496 1.80373022 8.46988605 2 4 C1.34 2.68 0.68 1.36 0 0 Z " fill="#F9F9FA" transform="translate(243,114)"/>
<path d="M0 0 C0.99 0 1.98 0 3 0 C4.4375 1.72265625 4.4375 1.72265625 6 4.0625 C12.88831371 13.28558952 24.65234656 19.28986068 36 21 C53.34114524 22.24019117 67.08194904 19.29771873 81.125 8.625 C81.74375 8.08875 82.3625 7.5525 83 7 C83.99 7.495 83.99 7.495 85 8 C83.71034824 9.37562854 82.37310707 10.70766393 81 12 C80.34 12 79.68 12 79 12 C79 12.66 79 13.32 79 14 C65.9502849 24.42949671 50.26612409 27.29348566 34 26 C19.0000763 23.44354483 8.09565418 16.1007525 -2 5 C-1.34 3.35 -0.68 1.7 0 0 Z " fill="#F7F7F7" transform="translate(71,148)"/>
<path d="M0 0 C0 0.66 0 1.32 0 2 C0.56847656 2.226875 1.13695312 2.45375 1.72265625 2.6875 C9.03009254 6.89898987 15.51955664 17.00270848 18 25 C17.6171875 27.28515625 17.6171875 27.28515625 17 29 C16.36384766 27.64068359 16.36384766 27.64068359 15.71484375 26.25390625 C8.31283996 10.73935751 0.05235846 1.51376803 -16.23828125 -5.0546875 C-28.64660477 -9.30194958 -44.13847375 -8.28081648 -56 -3 C-58.60829907 -1.60406282 -61.1001688 -0.11882436 -63.5859375 1.484375 C-66.86941677 3.54584742 -70.31241602 5.19927003 -73.79296875 6.8984375 C-76.27883084 8.13916867 -78.6530853 9.51362069 -81 11 C-76.53064342 1.02138703 -66.16597322 -5.01326612 -56.44140625 -9.06640625 C-36.4225748 -16.05443004 -17.1755125 -11.45034167 0 0 Z " fill="#F6F5F5" transform="translate(150,72)"/>
<path d="M0 0 C0.99 0.33 1.98 0.66 3 1 C3 1.66 3 2.32 3 3 C3.66 3 4.32 3 5 3 C4.52148372 5.57376715 3.97918713 8.07138921 3.24609375 10.5859375 C-0.06698417 22.01365556 -0.03027039 33.50120611 3 45 C2.34 45 1.68 45 1 45 C0.67 46.32 0.34 47.64 0 49 C-0.66 49 -1.32 49 -2 49 C-7.81516211 34.08284501 -7.68764773 18.98715934 -2 4 C-1.35994971 2.65368732 -0.70447442 1.3137496 0 0 Z " fill="#F9F9F9" transform="translate(63,90)"/>
<path d="M0 0 C3.73487777 0.4979837 5.81237635 0.87491756 9 3 C10.32 3 11.64 3 13 3 C12.67 5.31 12.34 7.62 12 10 C10.35 10.66 8.7 11.32 7 12 C7 12.66 7 13.32 7 14 C9.475 14.495 9.475 14.495 12 15 C8.71536341 17.18975773 5.79303725 17.99806563 2 19 C2.495 20.8253125 2.495 20.8253125 3 22.6875 C3.80322213 25.87210604 4.20641973 28.6972843 4 32 C0.59332791 31.71611066 -0.68756804 31.35148596 -3 28.75 C-3.66 27.8425 -4.32 26.935 -5 26 C-5.928125 25.154375 -6.85625 24.30875 -7.8125 23.4375 C-10 21 -10 21 -9.9375 18.8125 C-8.38266919 15.80649376 -7.03003064 15.01201226 -3.875 13.75 C0.63035089 11.9194048 4.23165954 9.02446027 8 6 C5.36 4.68 2.72 3.36 0 2 C0 1.34 0 0.68 0 0 Z " fill="#C0252B" transform="translate(96,121)"/>
<path d="M0 0 C0.66 0 1.32 0 2 0 C2 3.96 2 7.92 2 12 C-2.38777493 12.87755499 -6.32169062 13.14194175 -10.74926758 13.12939453 C-11.51433624 13.13114685 -12.27940491 13.13289917 -13.06765747 13.13470459 C-15.59330529 13.13909875 -18.11888273 13.13619045 -20.64453125 13.1328125 C-22.41509515 13.133487 -24.18565895 13.13445824 -25.95622253 13.13571167 C-29.6725655 13.13718599 -33.38888444 13.13504543 -37.10522461 13.13037109 C-41.82406729 13.12471979 -46.5428525 13.12792503 -51.261693 13.13394356 C-54.92443761 13.13759573 -58.58716912 13.13638868 -62.24991417 13.13381577 C-63.9867014 13.1331569 -65.72348989 13.13393775 -67.46027565 13.13629532 C-78.35064756 13.14781906 -89.13799099 12.82216472 -100 12 C-100 11.67 -100 11.34 -100 11 C-70.63 11 -41.26 11 -11 11 C-11.33 7.7 -11.66 4.4 -12 1 C-9.36 1 -6.72 1 -4 1 C-4 1.33 -4 1.66 -4 2 C-5.98 2 -7.96 2 -10 2 C-9.505 3.485 -9.505 3.485 -9 5 C-9.33 5.66 -9.66 6.32 -10 7 C-8.68 7 -7.36 7 -6 7 C-6 7.99 -6 8.98 -6 10 C-4.02 10 -2.04 10 0 10 C0 6.7 0 3.4 0 0 Z " fill="#942327" transform="translate(288,143)"/>
<path d="M0 0 C0.74056641 0.24363281 0.74056641 0.24363281 1.49609375 0.4921875 C5.01216914 1.20527611 8.4914815 1.14428543 12.0625 1.125 C12.78244141 1.12886719 13.50238281 1.13273438 14.24414062 1.13671875 C17.42708639 1.13080799 19.95947862 1.01350713 23 0 C23 0.66 23 1.32 23 2 C23.99 2 24.98 2 26 2 C26 2.66 26 3.32 26 4 C25.01 4.33 24.02 4.66 23 5 C23 5.99 23 6.98 23 8 C20.69 8.33 18.38 8.66 16 9 C16 8.34 16 7.68 16 7 C14.35 7.33 12.7 7.66 11 8 C10.67 7.34 10.34 6.68 10 6 C7.97536745 5.34786708 7.97536745 5.34786708 6 5 C5.67 5.99 5.34 6.98 5 8 C2.9375 8.6875 2.9375 8.6875 1 9 C1.061875 9.94875 1.12375 10.8975 1.1875 11.875 C1.125625 12.90625 1.06375 13.9375 1 15 C0.01 15.66 -0.98 16.32 -2 17 C-3.79421519 15.20578481 -3.21485363 12.60967074 -3.25 10.1875 C-3.27578125 9.12917969 -3.3015625 8.07085937 -3.328125 6.98046875 C-2.96764676 3.70612476 -2.19903775 2.39000682 0 0 Z " fill="#BC292F" transform="translate(124,138)"/>
<path d="M0 0 C0.66 0 1.32 0 2 0 C2 1.65 2 3.3 2 5 C5.465 4.505 5.465 4.505 9 4 C6.45217026 6.97246802 3.54659117 8.41535288 0 10 C-0.66 10 -1.32 10 -2 10 C-2.66 12.64 -3.32 15.28 -4 18 C-6.66666667 18.66666667 -9.33333333 19.33333333 -12 20 C-13.27537609 17.59095627 -14.31258452 15.60351848 -15 13 C-14.125 10.25 -14.125 10.25 -12 8 C-9.68020619 6.96898053 -7.34570085 5.97063483 -5 5 C-3.2958946 3.37163262 -1.61974559 1.71230248 0 0 Z " fill="#BD2229" transform="translate(89,76)"/>
<path d="M0 0 C1.47726563 0.43119141 1.47726563 0.43119141 2.984375 0.87109375 C3.73203125 1.09925781 4.4796875 1.32742187 5.25 1.5625 C3.27 2.5525 3.27 2.5525 1.25 3.5625 C1.25 5.8725 1.25 8.1825 1.25 10.5625 C-5.02 10.5625 -11.29 10.5625 -17.75 10.5625 C-17.75 7.9225 -17.75 5.2825 -17.75 2.5625 C-14.78 2.8925 -11.81 3.2225 -8.75 3.5625 C-9.08 2.2425 -9.41 0.9225 -9.75 -0.4375 C-6.09142468 -1.75284494 -3.66973519 -1.09218309 0 0 Z " fill="#CB2126" transform="translate(155.75,142.4375)"/>
<path d="M0 0 C0.99 0 1.98 0 3 0 C1.63757574 3.06713244 0.10300295 5.11840293 -2.3125 7.4375 C-2.92867187 8.035625 -3.54484375 8.63375 -4.1796875 9.25 C-5.08074219 10.11625 -5.08074219 10.11625 -6 11 C-6.98160543 11.97672182 -7.96112694 12.95554767 -8.9375 13.9375 C-9.618125 14.618125 -10.29875 15.29875 -11 16 C-10.27167969 16.25007813 -9.54335937 16.50015625 -8.79296875 16.7578125 C-5.76378688 18.10505702 -3.77086313 19.66289056 -1.3125 21.875 C-0.16201172 22.89207031 -0.16201172 22.89207031 1.01171875 23.9296875 C2.91997114 25.91666936 4.02114134 27.44233704 5 30 C4.9375 32.5 4.9375 32.5 4 35 C1.30585288 37.54851755 -1.49777876 39.71585221 -5 41 C-5.99 40.67 -6.98 40.34 -8 40 C-7.67 39.34 -7.34 38.68 -7 38 C-6.34 38 -5.68 38 -5 38 C-5 37.34 -5 36.68 -5 36 C-2.69 35.34 -0.38 34.68 2 34 C2 32.35 2 30.7 2 29 C1.01 28.67 0.02 28.34 -1 28 C-1.6875 25.9375 -1.6875 25.9375 -2 24 C-3.0725 23.938125 -4.145 23.87625 -5.25 23.8125 C-9 23 -9 23 -11.375 20.75 C-12.96606467 18.05742902 -13.64740907 16.08517061 -14 13 C-13.34 13 -12.68 13 -12 13 C-12 12.34 -12 11.68 -12 11 C-11.01 11 -10.02 11 -9 11 C-8.67 10.01 -8.34 9.02 -8 8 C-7.01 8 -6.02 8 -5 8 C-5 7.01 -5 6.02 -5 5 C-4.360625 4.731875 -3.72125 4.46375 -3.0625 4.1875 C-0.66868314 3.11332248 -0.66868314 3.11332248 0 0 Z " fill="#BA2A35" transform="translate(116,95)"/>
<path d="M0 0 C-0.86921836 3.80283034 -2.30963 5.47385776 -5.5 7.5 C-9.48037758 9.8055739 -13.59075241 11.8450786 -17.72265625 13.86328125 C-20.23249982 15.11605051 -22.63034828 16.49922057 -25 18 C-21.57292737 10.34846655 -8.79760921 -2.9325364 0 0 Z " fill="#F9F7F7" transform="translate(94,65)"/>
<path d="M0 0 C4.92550202 0.55063039 8.84501978 2.16198475 13.1875 4.4375 C13.80302734 4.75009766 14.41855469 5.06269531 15.05273438 5.38476562 C17.81558743 6.80061556 20.41390648 8.27593765 23 10 C23 10.66 23 11.32 23 12 C23.56847656 12.226875 24.13695312 12.45375 24.72265625 12.6875 C32.03009254 16.89898987 38.51955664 27.00270848 41 35 C40.6171875 37.28515625 40.6171875 37.28515625 40 39 C39.36384766 37.64068359 39.36384766 37.64068359 38.71484375 36.25390625 C31.31283996 20.73935751 23.05235846 11.51376803 6.76171875 4.9453125 C4.17742746 4.06073189 1.68894608 3.46040243 -1 3 C-0.67 2.01 -0.34 1.02 0 0 Z " fill="#E0E1E1" transform="translate(127,62)"/>
<path d="M0 0 C0.66 0.33 1.32 0.66 2 1 C3.9959722 1.67863055 5.99568551 2.34641919 8 3 C8 2.01 8 1.02 8 0 C8.66 0 9.32 0 10 0 C10 2.64 10 5.28 10 8 C9.01 8.33 8.02 8.66 7 9 C9.475 9.495 9.475 9.495 12 10 C8.09971775 12.60018816 4.52565431 12.15085514 0 12 C0 11.01 0 10.02 0 9 C-4.62 9 -9.24 9 -14 9 C-13.34 8.34 -12.68 7.68 -12 7 C-9.1796875 7.0234375 -9.1796875 7.0234375 -5.875 7.375 C-4.77929688 7.48585937 -3.68359375 7.59671875 -2.5546875 7.7109375 C-1.71164063 7.80632812 -0.86859375 7.90171875 0 8 C0 5.36 0 2.72 0 0 Z " fill="#C12126" transform="translate(176,144)"/>
<path d="M0 0 C1 2 1 2 0.00390625 5.0390625 C-0.47175781 6.22242187 -0.94742188 7.40578125 -1.4375 8.625 C-2.14712891 10.40777344 -2.14712891 10.40777344 -2.87109375 12.2265625 C-3.24363281 13.14179688 -3.61617188 14.05703125 -4 15 C-3.31292969 14.71125 -2.62585938 14.4225 -1.91796875 14.125 C-1.01691406 13.75375 -0.11585937 13.3825 0.8125 13 C1.70582031 12.62875 2.59914063 12.2575 3.51953125 11.875 C6 11 6 11 9 11 C4.32669751 15.76867601 -0.34126641 20.45582877 -5.4921875 24.7109375 C-7.0788611 26.06742011 -8.54200029 27.50707814 -10 29 C-9.01 25.535 -9.01 25.535 -8 22 C-7.34 22 -6.68 22 -6 22 C-4.94729537 19.36893239 -4.94729537 19.36893239 -5 18 C-5.33 17.34 -5.66 16.68 -6 16 C-5.67 15.34 -5.34 14.68 -5 14 C-6.32 13.67 -7.64 13.34 -9 13 C-8.443125 12.525625 -7.88625 12.05125 -7.3125 11.5625 C-4.16612276 8.07597387 -2.16197674 4.14674227 0 0 Z " fill="#B63138" transform="translate(79,119)"/>
<path d="M0 0 C1.32 0 2.64 0 4 0 C4 0.99 4 1.98 4 3 C4.66 2.67 5.32 2.34 6 2 C5.51163302 6.39530281 4.17023548 8.0219 1 11 C0.731875 11.70125 0.46375 12.4025 0.1875 13.125 C-1 15 -1 15 -4.625 16.25 C-5.73875 16.4975 -6.8525 16.745 -8 17 C-7.54803755 15.39402675 -7.08817673 13.79027492 -6.625 12.1875 C-6.36976562 11.29417969 -6.11453125 10.40085938 -5.8515625 9.48046875 C-5 7 -5 7 -3 4 C-2.34 4 -1.68 4 -1 4 C-0.67 2.68 -0.34 1.36 0 0 Z " fill="#C92125" transform="translate(70,133)"/>
<path d="M0 0 C0.66 0 1.32 0 2 0 C2 3.96 2 7.92 2 12 C-1.47330128 12.69466026 -3.91302863 13.12011816 -7.3125 13.0625 C-9.1378125 13.0315625 -9.1378125 13.0315625 -11 13 C-11.33 9.04 -11.66 5.08 -12 1 C-9.36 1 -6.72 1 -4 1 C-4 1.33 -4 1.66 -4 2 C-5.98 2 -7.96 2 -10 2 C-9.67 2.99 -9.34 3.98 -9 5 C-9.33 5.66 -9.66 6.32 -10 7 C-8.68 7 -7.36 7 -6 7 C-6 7.99 -6 8.98 -6 10 C-4.02 10 -2.04 10 0 10 C0 6.7 0 3.4 0 0 Z " fill="#AB2325" transform="translate(288,143)"/>
<path d="M0 0 C1.65 0 3.3 0 5 0 C5.33 1.65 5.66 3.3 6 5 C4.02 5 2.04 5 0 5 C1.2375 5.680625 1.2375 5.680625 2.5 6.375 C3.325 6.91125 4.15 7.4475 5 8 C5 8.66 5 9.32 5 10 C2.36 10 -0.28 10 -3 10 C-2.01 10.66 -1.02 11.32 0 12 C-2.31 12 -4.62 12 -7 12 C-6.67 11.01 -6.34 10.02 -6 9 C-5.96125079 7.33378384 -5.9549714 5.66605828 -6 4 C-4.7934375 3.566875 -4.7934375 3.566875 -3.5625 3.125 C-0.8673532 2.26737432 -0.8673532 2.26737432 0 0 Z " fill="#C51E24" transform="translate(130,143)"/>
<path d="M0 0 C0.33 0.66 0.66 1.32 1 2 C0.67 2.66 0.34 3.32 0 4 C-0.66 4 -1.32 4 -2 4 C-2.18175781 4.63808594 -2.36351563 5.27617187 -2.55078125 5.93359375 C-2.80214844 6.75988281 -3.05351563 7.58617187 -3.3125 8.4375 C-3.55613281 9.26121094 -3.79976562 10.08492187 -4.05078125 10.93359375 C-4.36402344 11.61550781 -4.67726563 12.29742187 -5 13 C-5.99 13.33 -6.98 13.66 -8 14 C-8.061875 14.78375 -8.12375 15.5675 -8.1875 16.375 C-8.455625 17.24125 -8.72375 18.1075 -9 19 C-10.65 19.66 -12.3 20.32 -14 21 C-14 24.96 -14 28.92 -14 33 C-16.58926331 30.41073669 -16.37398043 28.97294721 -16.625 25.375 C-16.69976562 24.37210938 -16.77453125 23.36921875 -16.8515625 22.3359375 C-16.90054688 21.56507813 -16.94953125 20.79421875 -17 20 C-12.25 17 -12.25 17 -10 17 C-9.5978125 15.6696875 -9.5978125 15.6696875 -9.1875 14.3125 C-8.07868507 11.21948994 -6.69177578 8.79510781 -5 6 C-4.855625 5.278125 -4.71125 4.55625 -4.5625 3.8125 C-4 2 -4 2 -1.9375 0.75 C-1.298125 0.5025 -0.65875 0.255 0 0 Z " fill="#A7272F" transform="translate(69,133)"/>
<path d="M0 0 C0.33 0.66 0.66 1.32 1 2 C3.97 2 6.94 2 10 2 C6.30841682 4.46105545 3.53376446 4.25575793 -0.73046875 4.1953125 C-1.48088943 4.1924826 -2.23131012 4.18965271 -3.00447083 4.18673706 C-5.39897675 4.17555062 -7.79310731 4.15044928 -10.1875 4.125 C-11.81184355 4.11496819 -13.43619297 4.10584269 -15.06054688 4.09765625 C-19.040509 4.07561637 -23.02019088 4.0410974 -27 4 C-27 3.34 -27 2.68 -27 2 C-18.09 2 -9.18 2 0 2 C0 1.34 0 0.68 0 0 Z " fill="#BD6064" transform="translate(178,138)"/>
<path d="M0 0 C0.99 0 1.98 0 3 0 C2.88617347 1.95901454 2.75858875 3.9172338 2.625 5.875 C2.55539063 6.96554688 2.48578125 8.05609375 2.4140625 9.1796875 C2 12 2 12 0 14 C-2.625 13.625 -2.625 13.625 -5 13 C-5.33 11.02 -5.66 9.04 -6 7 C-5.38125 6.95875 -4.7625 6.9175 -4.125 6.875 C-3.42375 6.58625 -2.7225 6.2975 -2 6 C-0.6954344 3.00384054 -0.6954344 3.00384054 0 0 Z " fill="#CA242D" transform="translate(132,86)"/>
<path d="M0 0 C1.98 0.495 1.98 0.495 4 1 C4 5.62 4 10.24 4 15 C2.68 15 1.36 15 0 15 C-0.19601608 13.25093341 -0.38147403 11.50068154 -0.5625 9.75 C-0.66691406 8.77546875 -0.77132812 7.8009375 -0.87890625 6.796875 C-0.98974468 4.2368648 -0.77738092 2.41851841 0 0 Z " fill="#C6252D" transform="translate(55,153)"/>
<path d="M0 0 C0.33 0.66 0.66 1.32 1 2 C-0.32 2 -1.64 2 -3 2 C-0.392124 9.04566965 -0.392124 9.04566965 4 15 C4.66 14.01 5.32 13.02 6 12 C7 13 7 13 7.0625 15.5625 C7.041875 16.366875 7.02125 17.17125 7 18 C3.59332791 17.71611066 2.31243196 17.35148596 0 14.75 C-0.99 13.38875 -0.99 13.38875 -2 12 C-2.928125 11.154375 -3.85625 10.30875 -4.8125 9.4375 C-7 7 -7 7 -6.9375 4.8125 C-6 3 -6 3 -4 1 C-1.875 0.375 -1.875 0.375 0 0 Z " fill="#B02D35" transform="translate(93,135)"/>
<path d="M0 0 C1.65 0.99 3.3 1.98 5 3 C3.68 3.33 2.36 3.66 1 4 C1.66 5.98 2.32 7.96 3 10 C4.65 9.67 6.3 9.34 8 9 C8.33 6.03 8.66 3.06 9 0 C9.33 0 9.66 0 10 0 C10.28328381 3.70787035 10.46346554 7.30318076 10 11 C7.5 13.1875 7.5 13.1875 5 14 C4.2575 13.38125 3.515 12.7625 2.75 12.125 C0.51198812 10.39562719 -1.43739987 9.13893339 -4 8 C-3.67 6.35 -3.34 4.7 -3 3 C-2.01 3.33 -1.02 3.66 0 4 C0 2.68 0 1.36 0 0 Z " fill="#B72831" transform="translate(125,89)"/>
<path d="M0 0 C0.66 0 1.32 0 2 0 C2 2 2 2 -0.1875 4.5 C-3.74273576 7.66020956 -6.24147589 9 -11 9 C-11 10.98 -11 12.96 -11 15 C-10.01 15.33 -9.02 15.66 -8 16 C-8 16.99 -8 17.98 -8 19 C-9.32 19.33 -10.64 19.66 -12 20 C-13.27537609 17.59095627 -14.31258452 15.60351848 -15 13 C-14.125 10.25 -14.125 10.25 -12 8 C-9.68020619 6.96898053 -7.34570085 5.97063483 -5 5 C-3.2958946 3.37163262 -1.61974559 1.71230248 0 0 Z " fill="#9F4446" transform="translate(89,76)"/>
<path d="M0 0 C0.99 0 1.98 0 3 0 C3 3.3 3 6.6 3 10 C1.02 10 -0.96 10 -3 10 C-3 9.01 -3 8.02 -3 7 C-3.66 7 -4.32 7 -5 7 C-5 6.01 -5 5.02 -5 4 C-3.35 4 -1.7 4 0 4 C0 2.68 0 1.36 0 0 Z " fill="#CA2226" transform="translate(285,143)"/>
<path d="M0 0 C1.98 0.66 3.96 1.32 6 2 C6 3.65 6 5.3 6 7 C5.34 7 4.68 7 4 7 C4 8.32 4 9.64 4 11 C1.425698 13.99175638 -0.23077307 15.74359102 -4 17 C-2.6744419 13.37723685 -1.05653045 10.36494652 1.125 7.1875 C1.93324219 6.00220703 1.93324219 6.00220703 2.7578125 4.79296875 C3.16773437 4.20128906 3.57765625 3.60960938 4 3 C2.68 2.34 1.36 1.68 0 1 C0 0.67 0 0.34 0 0 Z " fill="#B62C37" transform="translate(99,81)"/>
<path d="M0 0 C0.99 0.495 0.99 0.495 2 1 C3.9959722 1.67863055 5.99568551 2.34641919 8 3 C8 2.01 8 1.02 8 0 C8.66 0 9.32 0 10 0 C10 2.64 10 5.28 10 8 C9.34 8 8.68 8 8 8 C7.67 7.34 7.34 6.68 7 6 C4.69 6.66 2.38 7.32 0 8 C0 5.36 0 2.72 0 0 Z " fill="#B11B15" transform="translate(176,144)"/>
<path d="M0 0 C0.33 0.66 0.66 1.32 1 2 C0.05125 2.103125 -0.8975 2.20625 -1.875 2.3125 C-5.29107501 2.68539295 -5.29107501 2.68539295 -7 6 C-7.99 6.33 -8.98 6.66 -10 7 C-10.33 7.99 -10.66 8.98 -11 10 C-11.36658354 3.52369077 -11.36658354 3.52369077 -9.6875 1.125 C-6.2283592 -1.18109387 -3.86945639 -1.1201058 0 0 Z " fill="#BB2C3A" transform="translate(125,70)"/>
<path d="M0 0 C1.9453125 -0.29296875 1.9453125 -0.29296875 4.125 -0.1875 C5.40375 -0.125625 6.6825 -0.06375 8 0 C8 0.33 8 0.66 8 1 C6.02 1 4.04 1 2 1 C2 1.66 2 2.32 2 3 C2.99 3 3.98 3 5 3 C5 3.66 5 4.32 5 5 C5.99 5 6.98 5 8 5 C8 5.99 8 6.98 8 8 C5.36 8 2.72 8 0 8 C-1.125 5.6875 -1.125 5.6875 -2 3 C-1.34 2.01 -0.68 1.02 0 0 Z " fill="#A81714" transform="translate(228,144)"/>
<path d="M0 0 C0.49371094 0.16242188 0.98742187 0.32484375 1.49609375 0.4921875 C5.01216914 1.20527611 8.4914815 1.14428543 12.0625 1.125 C12.78244141 1.12886719 13.50238281 1.13273438 14.24414062 1.13671875 C17.42708639 1.13080799 19.95947862 1.01350713 23 0 C23 0.66 23 1.32 23 2 C23.99 2 24.98 2 26 2 C26 2.66 26 3.32 26 4 C17.75 3.67 9.5 3.34 1 3 C0.67 2.01 0.34 1.02 0 0 Z " fill="#C06E70" transform="translate(124,138)"/>
<path d="M0 0 C0.66 0.66 1.32 1.32 2 2 C1.9375 4.375 1.9375 4.375 1 7 C-1.69414712 9.54851755 -4.49777876 11.71585221 -8 13 C-8.99 12.67 -9.98 12.34 -11 12 C-10.67 11.34 -10.34 10.68 -10 10 C-9.34 10 -8.68 10 -8 10 C-8 9.34 -8 8.68 -8 8 C-5.69 7.34 -3.38 6.68 -1 6 C-0.67 4.02 -0.34 2.04 0 0 Z " fill="#A72D34" transform="translate(119,123)"/>
<path d="M0 0 C0.66 0.33 1.32 0.66 2 1 C0.54782324 2.50596108 -0.91192861 4.00462104 -2.375 5.5 C-3.18710938 6.3353125 -3.99921875 7.170625 -4.8359375 8.03125 C-7 10 -7 10 -9 10 C-9.3125 7.6875 -9.3125 7.6875 -9 5 C-6.75 3.3125 -6.75 3.3125 -4 2 C-3.278125 1.5875 -2.55625 1.175 -1.8125 0.75 C-1.214375 0.5025 -0.61625 0.255 0 0 Z " fill="#B52B2E" transform="translate(86,129)"/>
<path d="M0 0 C0.33 1.65 0.66 3.3 1 5 C-0.98 5 -2.96 5 -5 5 C-5.33 5.99 -5.66 6.98 -6 8 C-8 5 -8 5 -8 3 C-5.65966534 -0.20256322 -3.8395009 -0.31131088 0 0 Z " fill="#B71E19" transform="translate(135,143)"/>
<path d="M0 0 C3.0625 1.625 3.0625 1.625 5 3 C4.34 3.66 3.68 4.32 3 5 C3 4.34 3 3.68 3 3 C-0.83724172 2.09586327 -4.37502274 1.89423102 -8.3125 1.9375 C-9.91544922 1.95103516 -9.91544922 1.95103516 -11.55078125 1.96484375 C-12.35902344 1.97644531 -13.16726562 1.98804687 -14 2 C-9.30246074 -2.91106377 -6.20846369 -1.86253911 0 0 Z " fill="#AB3C45" transform="translate(105,74)"/>
<path d="M0 0 C0.97110486 3.02121511 1.13617383 5.00463263 0 8 C-2.70879335 9.35439668 -5.00933268 9.06501451 -8 9 C-6.8553125 7.88625 -6.8553125 7.88625 -5.6875 6.75 C-3.5606298 4.5736677 -1.7440044 2.47832204 0 0 Z " fill="#BA2831" transform="translate(94,98)"/>
<path d="M0 0 C-1.375 2 -1.375 2 -3 4 C-3.66 4 -4.32 4 -5 4 C-5.33 5.32 -5.66 6.64 -6 8 C-7.36741555 5.74778616 -8.04066478 4.47442242 -7.8125 1.8125 C-7.544375 1.214375 -7.27625 0.61625 -7 0 C-3.86650268 -1.04449911 -3.01031744 -0.93423645 0 0 Z " fill="#B31F1F" transform="translate(85,85)"/>
<path d="M0 0 C3.68802044 1.22934015 4.72356973 2.93859378 7 6 C7.66 5.01 8.32 4.02 9 3 C10 4 10 4 10.0625 6.5625 C10.041875 7.366875 10.02125 8.17125 10 9 C6.46491897 8.70540991 5.23796556 8.25118587 2.75 5.625 C1 3 1 3 0 0 Z " fill="#AE353E" transform="translate(90,144)"/>
<path d="M0 0 C0.99 0 1.98 0 3 0 C3 2.31 3 4.62 3 7 C2.01 7 1.02 7 0 7 C-0.66 6.34 -1.32 5.68 -2 5 C-2 4.01 -2 3.02 -2 2 C-1.34 2 -0.68 2 0 2 C0 1.34 0 0.68 0 0 Z " fill="#AD242C" transform="translate(82,87)"/>
<path d="M0 0 C0.33 0.66 0.66 1.32 1 2 C4.465 1.505 4.465 1.505 8 1 C5.64264116 3.72957339 3.41866474 4.88893396 0 6 C-0.99 6 -1.98 6 -3 6 C-2 4 -1 2 0 0 Z " fill="#BA2B33" transform="translate(90,79)"/>
<path d="M0 0 C0.98484375 0.29648438 1.9696875 0.59296875 2.984375 0.8984375 C3.73203125 1.13820312 4.4796875 1.37796875 5.25 1.625 C1.5 4.625 1.5 4.625 -0.75 4.625 C-0.75 3.965 -0.75 3.305 -0.75 2.625 C-2.07 2.625 -3.39 2.625 -4.75 2.625 C-4.75 1.965 -4.75 1.305 -4.75 0.625 C-6.4 0.625 -8.05 0.625 -9.75 0.625 C-6.11227071 -1.78283034 -4.06572337 -1.25843818 0 0 Z " fill="#B11A14" transform="translate(155.75,142.375)"/>
<path d="M0 0 C7.75 -0.125 7.75 -0.125 10 1 C10 1.66 10 2.32 10 3 C7.03 2.505 7.03 2.505 4 2 C3.67 2.66 3.34 3.32 3 4 C2.01 3.67 1.02 3.34 0 3 C0 2.01 0 1.02 0 0 Z " fill="#B31D1D" transform="translate(251,142)"/>
<path d="M0 0 C1.65 0 3.3 0 5 0 C4.01 0.33 3.02 0.66 2 1 C2 2.32 2 3.64 2 5 C0.35 5 -1.3 5 -3 5 C-3 5.99 -3 6.98 -3 8 C-3.66 8 -4.32 8 -5 8 C-5 6.35 -5 4.7 -5 3 C-3.02 3 -1.04 3 1 3 C0.67 2.01 0.34 1.02 0 0 Z " fill="#C72C31" transform="translate(283,142)"/>
<path d="M0 0 C2.97 0.495 2.97 0.495 6 1 C2.71536341 3.18975773 -0.20696275 3.99806563 -4 5 C-4 6.65 -4 8.3 -4 10 C-4.33 10 -4.66 10 -5 10 C-5 7.69 -5 5.38 -5 3 C-3.35 2.67 -1.7 2.34 0 2 C0 1.34 0 0.68 0 0 Z " fill="#AD2833" transform="translate(102,135)"/>
<path d="M0 0 C4.62 0 9.24 0 14 0 C13.67 0.66 13.34 1.32 13 2 C10.8203125 2.51953125 10.8203125 2.51953125 8.125 2.8125 C7.24070313 2.92207031 6.35640625 3.03164062 5.4453125 3.14453125 C3 3 3 3 0 0 Z " fill="#EAEAEA" transform="translate(208,114)"/>
<path d="M0 0 C0.33 0.66 0.66 1.32 1 2 C0.67 2.66 0.34 3.32 0 4 C-0.66 4 -1.32 4 -2 4 C-2.28875 4.78375 -2.5775 5.5675 -2.875 6.375 C-4 9 -4 9 -6 11 C-6.33 10.34 -6.66 9.68 -7 9 C-4.80433355 2.52856205 -4.80433355 2.52856205 -1.8125 0.5625 C-1.214375 0.376875 -0.61625 0.19125 0 0 Z " fill="#B74B50" transform="translate(69,133)"/>
<path d="M0 0 C-3.63 2.31 -7.26 4.62 -11 7 C-11 6.01 -11 5.02 -11 4 C-4.87769784 -1.62589928 -4.87769784 -1.62589928 0 0 Z " fill="#E8E8E8" transform="translate(81,76)"/>
<path d="M0 0 C4.99911924 0.47610659 7.97832683 2.03162219 12 5 C8.44757118 6.18414294 7.30169438 5.69535532 3.8125 4.5625 C2.91144531 4.27503906 2.01039063 3.98757812 1.08203125 3.69140625 C0.39496094 3.46324219 -0.29210937 3.23507813 -1 3 C-0.67 2.01 -0.34 1.02 0 0 Z " fill="#EEEBEC" transform="translate(127,62)"/>
<path d="M0 0 C2.475 0.495 2.475 0.495 5 1 C5.33 2.65 5.66 4.3 6 6 C5.01 6.495 5.01 6.495 4 7 C3.34 6.34 2.68 5.68 2 5 C1.34 5.66 0.68 6.32 0 7 C0 4.69 0 2.38 0 0 Z " fill="#B22E33" transform="translate(132,77)"/>
<path d="M0 0 C0.66 0.33 1.32 0.66 2 1 C2 4.3 2 7.6 2 11 C1.01 10.67 0.02 10.34 -1 10 C-1.125 2.25 -1.125 2.25 0 0 Z " fill="#CB2020" transform="translate(57,153)"/>
<path d="M0 0 C2.5 1.6875 2.5 1.6875 5 4 C5.3125 6.75 5.3125 6.75 5 9 C4.67 8.34 4.34 7.68 4 7 C3.01 6.67 2.02 6.34 1 6 C0.67 4.02 0.34 2.04 0 0 Z " fill="#BA2830" transform="translate(114,117)"/>
<path d="M0 0 C2.64 0 5.28 0 8 0 C7.67 0.99 7.34 1.98 7 3 C5.35 3 3.7 3 2 3 C1.67 2.34 1.34 1.68 1 1 C1 2.98 1 4.96 1 7 C0.67 7 0.34 7 0 7 C0 4.69 0 2.38 0 0 Z " fill="#C12121" transform="translate(175,143)"/>
<path d="M0 0 C2.31 0 4.62 0 7 0 C6.34 1.65 5.68 3.3 5 5 C3.35 5 1.7 5 0 5 C0.99 4.67 1.98 4.34 3 4 C3 3.34 3 2.68 3 2 C2.01 2 1.02 2 0 2 C0 1.34 0 0.68 0 0 Z " fill="#BD2C2D" transform="translate(230,145)"/>
<path d="M0 0 C1.32 0 2.64 0 4 0 C2.95125002 2.62187494 2.35068687 3.79371361 -0.125 5.25 C-0.74375 5.4975 -1.3625 5.745 -2 6 C-1.125 1.125 -1.125 1.125 0 0 Z " fill="#BB2933" transform="translate(91,121)"/>
<path d="M0 0 C0.99 0.66 1.98 1.32 3 2 C2.67 2.99 2.34 3.98 2 5 C0.35 4.67 -1.3 4.34 -3 4 C-2.67 3.01 -2.34 2.02 -2 1 C-1.34 0.67 -0.68 0.34 0 0 Z " fill="#CD1F23" transform="translate(130,95)"/>
<path d="M0 0 C0.99 0 1.98 0 3 0 C3 0.66 3 1.32 3 2 C3.99 2.33 4.98 2.66 6 3 C6 3.33 6 3.66 6 4 C4.02 4 2.04 4 0 4 C0 2.68 0 1.36 0 0 Z " fill="#C0272E" transform="translate(206,146)"/>
<path d="M0 0 C2.4375 0.375 2.4375 0.375 5 1 C5.33 1.66 5.66 2.32 6 3 C5.34 3 4.68 3 4 3 C4 3.66 4 4.32 4 5 C3.01 4.67 2.02 4.34 1 4 C0.3125 1.9375 0.3125 1.9375 0 0 Z " fill="#C02A2C" transform="translate(250,145)"/>
<path d="M0 0 C0.99 0 1.98 0 3 0 C2.34 3.3 1.68 6.6 1 10 C0.67 10 0.34 10 0 10 C-0.19412181 8.52168779 -0.38012131 7.04230684 -0.5625 5.5625 C-0.66691406 4.73878906 -0.77132812 3.91507813 -0.87890625 3.06640625 C-0.91886719 2.38449219 -0.95882812 1.70257813 -1 1 C-0.67 0.67 -0.34 0.34 0 0 Z " fill="#C92A30" transform="translate(59,153)"/>
<path d="M0 0 C0.33 0 0.66 0 1 0 C1 3.63 1 7.26 1 11 C-0.32 11.33 -1.64 11.66 -3 12 C-2.34 11.01 -1.68 10.02 -1 9 C-0.54605448 6.72087062 -0.54605448 6.72087062 -0.375 4.3125 C-0.30023438 3.50425781 -0.22546875 2.69601563 -0.1484375 1.86328125 C-0.09945312 1.24839844 -0.05046875 0.63351563 0 0 Z " fill="#B3373F" transform="translate(134,89)"/>
<path d="M0 0 C1 4 1 4 1 4 Z " fill="#A9A9A9" transform="translate(169,106)"/>
<path d="" fill="#9BA1A1" transform="translate(0,0)"/>
<path d="" fill="#000000" transform="translate(0,0)"/>
</svg>
